<svg width="30" height="30" xmlns="http://www.w3.org/2000/svg">
 <g id="Layer_1">
  <title>Layer 1</title>
  <rect transform="rotate(50.2317 13.4535 16.0005)" stroke="#000" id="svg_1" height="18.71581" width="15.91199" y="6.64257" x="5.4975" fill="#fff"/>
  <line id="svg_6" y2="16.1875" x2="26" y1="15.5625" x1="2" stroke="#000" fill="none"/>
  <line id="svg_7" y2="15.8125" x2="34" y1="15.9375" x1="34" stroke="#000" fill="none"/>
  <path id="svg_16" d="m25.3881,24.44841c-0.96099,-0.37651 -1.64979,-1.57288 -1.49325,-2.5936c0.09871,-0.64364 2.18119,-4.55099 2.36306,-4.43379c0.05936,0.03825 0.58758,0.94922 1.17382,2.02437c0.9391,1.72228 1.0659,2.04343 1.0659,2.69972c0,1.33028 -1.02105,2.41993 -2.24704,2.398c-0.35776,-0.0064 -0.74588,-0.04902 -0.86249,-0.0947l0,0zm0.9628,-0.66908c0.03181,-0.17222 -0.0425,-0.25622 -0.22666,-0.25622c-0.41974,0 -1.00199,-0.55431 -1.13207,-1.07775c-0.13876,-0.55837 -0.50669,-0.62477 -0.56103,-0.10126c-0.1047,1.00862 1.74338,2.39025 1.91977,1.43523l0,0z" stroke="#000" fill="none"/>
 </g>
</svg>