<svg width="30" height="30" xmlns="http://www.w3.org/2000/svg">
 <g id="Layer_1">
  <title>Layer 1</title>
  <path id="svg_34" d="m49.57953,17.83411c-0.21007,-0.07893 -0.36064,-0.32975 -0.32642,-0.54374c0.02158,-0.13494 0.4768,-0.95409 0.51655,-0.92952c0.01298,0.00802 0.12844,0.199 0.25659,0.4244c0.20528,0.36107 0.233,0.42839 0.233,0.56598c0,0.27889 -0.2232,0.50732 -0.49119,0.50273c-0.0782,-0.00134 -0.16305,-0.01028 -0.18854,-0.01985l0,0zm0.21046,-0.14027c0.00695,-0.03611 -0.00929,-0.05371 -0.04955,-0.05371c-0.09175,0 -0.21903,-0.11621 -0.24747,-0.22594c-0.03033,-0.11706 -0.11076,-0.13098 -0.12264,-0.02123c-0.02289,0.21145 0.38109,0.5011 0.41965,0.30089l0,0z" stroke="#000" fill="none"/>
  <ellipse ry="5.0625" rx="7.1875" id="svg_35" cy="9.5" cx="16.9375" stroke="#000" fill="none"/>
  <line stroke="#000" id="svg_36" y2="4.3125" x2="4.875" y1="7.4375" x1="9.875" fill="none"/>
  <line id="svg_37" y2="14.9375" x2="5.875" y1="4.1875" x1="5.125" stroke="#000" fill="none"/>
  <line id="svg_38" y2="10.5625" x2="10" y1="14.6875" x1="5.875" stroke="#000" fill="none"/>
  <ellipse ry="0.8125" rx="0.75" id="svg_39" cy="8.125" cx="19.875" stroke="#000" fill="none"/>
  <path transform="rotate(109 15.3393 11.3867)" id="svg_46" d="m13.52233,8.75457c7.75,0.125 0.69339,5.75686 0.69339,5.69436c0,0.0625 -0.5,-6.0625 -0.5,-6.125" opacity="NaN" stroke="#000" fill="none"/>
  <path stroke="#000" id="svg_47" d="m13.93032,27.97788c-0.41894,-0.2949 -0.36398,-0.47347 0.6546,-2.12655c0.51433,-0.83472 0.93514,-1.54193 0.93514,-1.57158c0,-0.02964 -1.42024,-0.0539 -3.1561,-0.0539l-3.1561,0l0,-1.56335l0,-1.56335l3.18111,0c2.45282,0 3.15373,-0.0471 3.06152,-0.2057c-0.06577,-0.11314 -0.51444,-0.86389 -0.99705,-1.66835c-0.90971,-1.51641 -0.90943,-1.92308 0.00141,-2.04913c0.45329,-0.06273 7.51044,4.75704 7.753,5.29502c-2.35067,1.92087 -5.16053,3.93154 -7.74886,5.70437c-0.13648,0 -0.37438,-0.08886 -0.52868,-0.19748l0,0z" fill="none"/>
 </g>
</svg>