<svg viewBox="0 0 185.42 44.54" xmlns="http://www.w3.org/2000/svg"><g fill="#e00f28"><path d="m107.39 40.91h74.4v-37.28h-74.4zm78 3.63h-81.63v-44.54h81.66z"/><path d="m118 28.7a2.38 2.38 0 1 1 2.34 2.3 2.33 2.33 0 0 1 -2.34-2.3"/><path d="m125 23.19v-.19a7.71 7.71 0 0 1 7.9-8.11c3.47 0 6.73 1.56 7.15 5.87h-3.5a3.23 3.23 0 0 0 -3.59-3c-2.48 0-4.25 1.92-4.25 5.15v.24c0 3.41 1.68 5.21 4.34 5.21a3.56 3.56 0 0 0 3.81-3.36h3.32c-.27 3.59-3 6.14-7.24 6.14-4.49 0-7.9-2.93-7.9-7.93"/><path d="m152.13 25.35v-1.56h-1.86c-2.75 0-4.52.63-4.52 2.54 0 1.32.72 2.19 2.51 2.19 2.21 0 3.86-1.17 3.86-3.17m-10 1.14c0-3.65 3.53-5 8-5h1.95v-.81c0-2.09-.72-3.14-2.84-3.14-1.89 0-2.81.9-3 2.45h-3.5c.3-3.65 3.2-5.18 6.7-5.18s6.26 1.44 6.26 5.72v10.29h-3.56v-1.91a5.45 5.45 0 0 1 -4.79 2.22c-2.87 0-5.24-1.38-5.24-4.64"/><path d="m160.75 17.89h-2.33v-2.72h2.33v-3.44h3.62v3.44h3.21v2.72h-3.21v12.93h-3.62z"/><path d="m0 14.84h3.86l3.11 11.31 3.33-11.31h3.02l3.05 11.31 3.26-11.31h3.53l-4.9 15.65h-3.69l-2.9-10.53-3.17 10.53h-3.71z"/><path d="m79.48 25.94h3.42c.18 1.59 1 2.51 3.11 2.51 1.95 0 2.81-.69 2.81-2s-1-1.77-3.35-2.15c-4.13-.66-5.66-1.83-5.66-4.76 0-3.14 2.93-4.7 5.87-4.7 3.2 0 5.75 1.2 6.14 4.73h-3.36c-.3-1.44-1.11-2.09-2.78-2.09s-2.48.75-2.48 1.86.75 1.59 3.23 2c3.68.57 5.87 1.47 5.87 4.79s-2.24 5-6.26 5-6.4-1.86-6.55-5.18"/><path d="m35.28 25.35v-1.56h-1.86c-2.75 0-4.52.63-4.52 2.54 0 1.32.72 2.19 2.51 2.19 2.21 0 3.86-1.17 3.86-3.17m-10 1.14c0-3.65 3.53-5 8-5h1.95v-.81c0-2.09-.72-3.14-2.84-3.14-1.89 0-2.81.9-3 2.45h-3.5c.3-3.65 3.2-5.18 6.7-5.18s6.26 1.44 6.26 5.72v10.29h-3.5v-1.91a5.45 5.45 0 0 1 -4.79 2.22c-2.87 0-5.24-1.38-5.24-4.64"/><path d="m54.7 23.1v-.24c0-3.47-1.8-5.18-4.16-5.18s-4.31 1.7-4.31 5.18v.24c0 3.5 1.71 5.15 4.34 5.15s4.13-1.8 4.13-5.15m-12-7.93h3.62v2.51a6 6 0 0 1 5.12-2.84c3.92 0 6.94 2.9 6.94 8v.16c0 5-2.9 8.08-6.94 8.08a5.66 5.66 0 0 1 -5.12-2.75v7.81h-3.59z"/><path d="m73.4 23.1v-.24c0-3.47-1.8-5.18-4.16-5.18s-4.31 1.7-4.31 5.18v.24c0 3.5 1.71 5.15 4.34 5.15s4.13-1.8 4.13-5.15m-12-7.93h3.62v2.51a6 6 0 0 1 5.12-2.84c3.92 0 6.94 2.9 6.94 8v.16c0 5-2.9 8.08-6.94 8.08a5.66 5.66 0 0 1 -5.12-2.75v7.81h-3.59z"/></g></svg>